<svg width="22" height="23" viewBox="0 0 22 23" fill="none" xmlns="http://www.w3.org/2000/svg">
<path d="M2.87109 8.53986C1.28795 8.53986 0 9.81545 0 11.3834C0 12.9514 1.28795 14.227 2.87109 14.227C4.45424 14.227 5.74219 12.9514 5.74219 11.3834C5.74219 9.81545 4.45424 8.53986 2.87109 8.53986ZM2.87109 12.6021C2.19259 12.6021 1.64062 12.0554 1.64062 11.3834C1.64062 10.7114 2.19259 10.1648 2.87109 10.1648C3.5496 10.1648 4.10156 10.7114 4.10156 11.3834C4.10156 12.0554 3.5496 12.6021 2.87109 12.6021Z" fill="#333333"/>
<path d="M10.8711 8.53986C9.28795 8.53986 8 9.81545 8 11.3834C8 12.9514 9.28795 14.227 10.8711 14.227C12.4542 14.227 13.7422 12.9514 13.7422 11.3834C13.7422 9.81545 12.4542 8.53986 10.8711 8.53986ZM10.8711 12.6021C10.1926 12.6021 9.64062 12.0554 9.64062 11.3834C9.64062 10.7114 10.1926 10.1648 10.8711 10.1648C11.5496 10.1648 12.1016 10.7114 12.1016 11.3834C12.1016 12.0554 11.5496 12.6021 10.8711 12.6021Z" fill="#333333"/>
<path d="M18.8711 8.53986C17.2879 8.53986 16 9.81545 16 11.3834C16 12.9514 17.2879 14.227 18.8711 14.227C20.4542 14.227 21.7422 12.9514 21.7422 11.3834C21.7422 9.81545 20.4542 8.53986 18.8711 8.53986ZM18.8711 12.6021C18.1926 12.6021 17.6406 12.0554 17.6406 11.3834C17.6406 10.7114 18.1926 10.1648 18.8711 10.1648C19.5496 10.1648 20.1016 10.7114 20.1016 11.3834C20.1016 12.0554 19.5496 12.6021 18.8711 12.6021Z" fill="#333333"/>
<path d="M2.87109 16.4632C1.28795 16.4632 0 17.7388 0 19.3067C0 20.8747 1.28795 22.1503 2.87109 22.1503C4.45424 22.1503 5.74219 20.8747 5.74219 19.3067C5.74219 17.7388 4.45424 16.4632 2.87109 16.4632ZM2.87109 20.5254C2.19259 20.5254 1.64062 19.9787 1.64062 19.3067C1.64062 18.6347 2.19259 18.0881 2.87109 18.0881C3.5496 18.0881 4.10156 18.6347 4.10156 19.3067C4.10156 19.9787 3.5496 20.5254 2.87109 20.5254Z" fill="#333333"/>
<path d="M10.8711 16.4632C9.28795 16.4632 8 17.7388 8 19.3067C8 20.8747 9.28795 22.1503 10.8711 22.1503C12.4542 22.1503 13.7422 20.8747 13.7422 19.3067C13.7422 17.7388 12.4542 16.4632 10.8711 16.4632ZM10.8711 20.5254C10.1926 20.5254 9.64062 19.9787 9.64062 19.3067C9.64062 18.6347 10.1926 18.0881 10.8711 18.0881C11.5496 18.0881 12.1016 18.6347 12.1016 19.3067C12.1016 19.9787 11.5496 20.5254 10.8711 20.5254Z" fill="#333333"/>
<path d="M18.8711 16.4632C17.2879 16.4632 16 17.7388 16 19.3067C16 20.8747 17.2879 22.1503 18.8711 22.1503C20.4542 22.1503 21.7422 20.8747 21.7422 19.3067C21.7422 17.7388 20.4542 16.4632 18.8711 16.4632ZM18.8711 20.5254C18.1926 20.5254 17.6406 19.9787 17.6406 19.3067C17.6406 18.6347 18.1926 18.0881 18.8711 18.0881C19.5496 18.0881 20.1016 18.6347 20.1016 19.3067C20.1016 19.9787 19.5496 20.5254 18.8711 20.5254Z" fill="#333333"/>
<path d="M2.87109 0.616547C1.28795 0.616547 0 1.89215 0 3.46012C0 5.02809 1.28795 6.30369 2.87109 6.30369C4.45424 6.30369 5.74219 5.02809 5.74219 3.46012C5.74219 1.89215 4.45424 0.616547 2.87109 0.616547ZM2.87109 4.67879C2.19259 4.67879 1.64062 4.13212 1.64062 3.46012C1.64062 2.78812 2.19259 2.24145 2.87109 2.24145C3.5496 2.24145 4.10156 2.78812 4.10156 3.46012C4.10156 4.13212 3.5496 4.67879 2.87109 4.67879Z" fill="#333333"/>
<path d="M10.8711 0.616547C9.28795 0.616547 8 1.89215 8 3.46012C8 5.02809 9.28795 6.30369 10.8711 6.30369C12.4542 6.30369 13.7422 5.02809 13.7422 3.46012C13.7422 1.89215 12.4542 0.616547 10.8711 0.616547ZM10.8711 4.67879C10.1926 4.67879 9.64062 4.13212 9.64062 3.46012C9.64062 2.78812 10.1926 2.24145 10.8711 2.24145C11.5496 2.24145 12.1016 2.78812 12.1016 3.46012C12.1016 4.13212 11.5496 4.67879 10.8711 4.67879Z" fill="#333333"/>
<path d="M18.8711 0.616547C17.2879 0.616547 16 1.89215 16 3.46012C16 5.02809 17.2879 6.30369 18.8711 6.30369C20.4542 6.30369 21.7422 5.02809 21.7422 3.46012C21.7422 1.89215 20.4542 0.616547 18.8711 0.616547ZM18.8711 4.67879C18.1926 4.67879 17.6406 4.13212 17.6406 3.46012C17.6406 2.78812 18.1926 2.24145 18.8711 2.24145C19.5496 2.24145 20.1016 2.78812 20.1016 3.46012C20.1016 4.13212 19.5496 4.67879 18.8711 4.67879Z" fill="#333333"/>
</svg>
